<svg width="862" height="348" viewBox="0 0 862 348" fill="none" xmlns="http://www.w3.org/2000/svg">
<g clip-path="url(#clip0_49_251)">
<path d="M511.27 42.5H177.56C172.004 42.5 167.5 47.004 167.5 52.56V281.78C167.5 287.336 172.004 291.84 177.56 291.84H511.27C516.826 291.84 521.33 287.336 521.33 281.78V52.56C521.33 47.004 516.826 42.5 511.27 42.5Z" fill="white" stroke="#222222" stroke-width="2" stroke-miterlimit="10"/>
<path d="M300.67 334.76H388.16C392.06 334.76 395.23 337.93 395.23 341.83V346.02H293.6V341.83C293.6 337.93 296.77 334.76 300.67 334.76Z" fill="white" stroke="#222222" stroke-width="2" stroke-miterlimit="10"/>
<path d="M369.75 291.84H317.9L315.23 334.76H373.6L369.75 291.84Z" fill="white" stroke="#222222" stroke-width="2" stroke-miterlimit="10"/>
<path d="M345.17 276.83C347.462 276.83 349.32 274.972 349.32 272.68C349.32 270.388 347.462 268.53 345.17 268.53C342.878 268.53 341.02 270.388 341.02 272.68C341.02 274.972 342.878 276.83 345.17 276.83Z" fill="white" stroke="#222222" stroke-width="2" stroke-miterlimit="10"/>
<path d="M495.26 64H194.96C191.116 64 188 67.1161 188 70.96V237.48C188 241.324 191.116 244.44 194.96 244.44H495.26C499.104 244.44 502.22 241.324 502.22 237.48V70.96C502.22 67.1161 499.104 64 495.26 64Z" fill="#5666F8"/>
</g>
<g clip-path="url(#clip1_49_251)">
<path d="M387.348 0.558105H249.652C245.183 0.558105 241.56 4.17177 241.56 8.62944V168.37C241.56 172.828 245.183 176.442 249.652 176.442H387.348C391.817 176.442 395.44 172.828 395.44 168.37V8.62944C395.44 4.17177 391.817 0.558105 387.348 0.558105Z" stroke="#121931" stroke-width="2" stroke-miterlimit="10"/>
<path d="M254.812 13.2178C256.493 13.2178 257.857 11.8583 257.857 10.1813C257.857 8.50427 256.493 7.14478 254.812 7.14478C253.131 7.14478 251.768 8.50427 251.768 10.1813C251.768 11.8583 253.131 13.2178 254.812 13.2178Z" fill="#121931"/>
<path d="M265.199 13.2178C266.881 13.2178 268.244 11.8583 268.244 10.1813C268.244 8.50427 266.881 7.14478 265.199 7.14478C263.518 7.14478 262.155 8.50427 262.155 10.1813C262.155 11.8583 263.518 13.2178 265.199 13.2178Z" fill="#F87C56"/>
<path d="M275.463 13.2178C277.144 13.2178 278.508 11.8583 278.508 10.1813C278.508 8.50427 277.144 7.14478 275.463 7.14478C273.782 7.14478 272.419 8.50427 272.419 10.1813C272.419 11.8583 273.782 13.2178 275.463 13.2178Z" fill="#5666F8"/>
<path d="M241.56 168.37C241.56 172.825 245.186 176.442 249.652 176.442H387.348C391.814 176.442 395.44 172.825 395.44 168.37V17.0916H241.56V168.359V168.37Z" fill="#121931"/>
<path d="M260.252 50.4597H263.99" stroke="#31344A" stroke-width="2" stroke-miterlimit="10" stroke-linecap="round"/>
<path d="M260.252 64.2356H263.99" stroke="#31344A" stroke-width="2" stroke-miterlimit="10" stroke-linecap="round"/>
<path d="M260.252 77.6655H263.99" stroke="#31344A" stroke-width="2" stroke-miterlimit="10" stroke-linecap="round"/>
<path d="M260.252 91.062H263.99" stroke="#31344A" stroke-width="2" stroke-miterlimit="10" stroke-linecap="round"/>
<path d="M260.252 104.916H263.99" stroke="#31344A" stroke-width="2" stroke-miterlimit="10" stroke-linecap="round"/>
<path d="M260.252 118.77H263.99" stroke="#31344A" stroke-width="2" stroke-miterlimit="10" stroke-linecap="round"/>
<path d="M260.252 132.624H263.99" stroke="#31344A" stroke-width="2" stroke-miterlimit="10" stroke-linecap="round"/>
<path d="M260.252 146.467H263.99" stroke="#31344A" stroke-width="2" stroke-miterlimit="10" stroke-linecap="round"/>
<path d="M285.089 50.4597H296.819" stroke="#5666F8" stroke-width="2" stroke-miterlimit="10" stroke-linecap="round"/>
<path d="M296.819 64.2356H337.651" stroke="#5666F8" stroke-width="2" stroke-miterlimit="10" stroke-linecap="round"/>
<path d="M269.374 77.6655H286.331" stroke="#5666F8" stroke-width="2" stroke-miterlimit="10" stroke-linecap="round"/>
<path d="M307.229 104.916H351.004" stroke="#5666F8" stroke-width="2" stroke-miterlimit="10" stroke-linecap="round"/>
<path d="M296.696 118.77H320.492" stroke="#5666F8" stroke-width="2" stroke-miterlimit="10" stroke-linecap="round"/>
<path d="M269.374 146.467H289.98" stroke="#5666F8" stroke-width="2" stroke-miterlimit="10" stroke-linecap="round"/>
<path d="M269.374 50.4597H281.295" stroke="#F87C56" stroke-width="2" stroke-miterlimit="10" stroke-linecap="round"/>
<path d="M269.374 64.2356H293.215" stroke="#F87C56" stroke-width="2" stroke-miterlimit="10" stroke-linecap="round"/>
<path d="M341.423 64.2356H357.72" stroke="#F87C56" stroke-width="2" stroke-miterlimit="10" stroke-linecap="round"/>
<path d="M290.316 77.6655H307.061" stroke="#F87C56" stroke-width="2" stroke-miterlimit="10" stroke-linecap="round"/>
<path d="M310.542 77.6655H320.571" stroke="#F87C56" stroke-width="2" stroke-miterlimit="10" stroke-linecap="round"/>
<path d="M269.374 91.062H303.334" stroke="#F87C56" stroke-width="2" stroke-miterlimit="10" stroke-linecap="round"/>
<path d="M307.229 91.062H330.689" stroke="#F87C56" stroke-width="2" stroke-miterlimit="10" stroke-linecap="round"/>
<path d="M269.374 104.916H302.998" stroke="#F87C56" stroke-width="2" stroke-miterlimit="10" stroke-linecap="round"/>
<path d="M269.374 118.77H293.293" stroke="#F87C56" stroke-width="2" stroke-miterlimit="10" stroke-linecap="round"/>
<path d="M324.052 118.77H337.327" stroke="#F87C56" stroke-width="2" stroke-miterlimit="10" stroke-linecap="round"/>
<path d="M269.374 132.624H313.944" stroke="#F87C56" stroke-width="2" stroke-miterlimit="10" stroke-linecap="round"/>
<path d="M299.595 50.4597H319.575" stroke="#F87C56" stroke-width="2" stroke-miterlimit="10" stroke-linecap="round"/>
<path d="M323.145 50.4597H350.758" stroke="#F87C56" stroke-width="2" stroke-miterlimit="10" stroke-linecap="round"/>
</g>
<g clip-path="url(#clip2_49_251)">
<path d="M193 210.5H147.11C140.146 210.5 134.5 216.146 134.5 223.11V333.89C134.5 340.854 140.146 346.5 147.11 346.5H193C199.964 346.5 205.61 340.854 205.61 333.89V223.11C205.61 216.146 199.964 210.5 193 210.5Z" fill="white" stroke="#222222" stroke-width="2" stroke-miterlimit="10"/>
<path d="M205.61 226.2H134.5V328.13H205.61V226.2Z" fill="#222222"/>
<path d="M184.87 220.57H149.31" stroke="#222222" stroke-width="2" stroke-miterlimit="10" stroke-linecap="round"/>
<path d="M190.65 268.72H167.24" stroke="white" stroke-width="3" stroke-miterlimit="10" stroke-linecap="round"/>
<path d="M183.54 277.17H167.24" stroke="white" stroke-width="2" stroke-miterlimit="10" stroke-linecap="round"/>
<path d="M167.24 283.69H176.57" stroke="white" stroke-width="2" stroke-miterlimit="10" stroke-linecap="round"/>
<path d="M154.65 283.39C158.085 283.39 160.87 280.605 160.87 277.17C160.87 273.735 158.085 270.95 154.65 270.95C151.215 270.95 148.43 273.735 148.43 277.17C148.43 280.605 151.215 283.39 154.65 283.39Z" fill="#5666F8"/>
<path d="M170.06 339.68C172.103 339.68 173.76 338.023 173.76 335.98C173.76 333.937 172.103 332.28 170.06 332.28C168.017 332.28 166.36 333.937 166.36 335.98C166.36 338.023 168.017 339.68 170.06 339.68Z" fill="#222222"/>
</g>
<g clip-path="url(#clip3_49_251)">
<path d="M667.74 162.5H437.48C430.251 162.5 424.39 168.361 424.39 175.59V319.63C424.39 326.859 430.251 332.72 437.48 332.72H667.74C674.969 332.72 680.83 326.859 680.83 319.63V175.59C680.83 168.361 674.969 162.5 667.74 162.5Z" fill="white" stroke="#222222" stroke-width="2" stroke-miterlimit="10"/>
<path d="M407.5 332.72H697.72V339.02C697.72 343.39 694.17 346.94 689.8 346.94H415.42C411.05 346.94 407.5 343.39 407.5 339.02V332.72Z" fill="white" stroke="#222222" stroke-width="2" stroke-miterlimit="10"/>
<path d="M532.28 332.72H571.39C571.39 336.64 568.2 339.83 564.28 339.83H539.39C535.47 339.83 532.28 336.64 532.28 332.72Z" fill="white" stroke="#222222" stroke-width="2" stroke-miterlimit="10"/>
<path d="M664.12 177.17H440.66C437.076 177.17 434.17 180.076 434.17 183.66V312.46C434.17 316.044 437.076 318.95 440.66 318.95H664.12C667.704 318.95 670.61 316.044 670.61 312.46V183.66C670.61 180.076 667.704 177.17 664.12 177.17Z" fill="#F87C56"/>
</g>
<g clip-path="url(#clip4_49_251)">
<path d="M90.9401 325.17C90.9401 317.99 96.7601 312.17 103.94 312.17H10.0601V338.17H103.95C96.7701 338.17 90.9501 332.35 90.9501 325.17H90.9401Z" fill="white" stroke="#222222" stroke-width="2" stroke-miterlimit="10"/>
<path d="M21.0601 305.5C9.45006 305.5 0.100058 315.11 0.510058 326.81C0.920058 338.51 10.4001 346.62 21.5401 346.62H106.08C107.29 346.62 108.27 345.64 108.27 344.43V340.36C108.27 339.15 107.29 338.17 106.08 338.17H23.0601C15.8801 338.17 10.0601 332.35 10.0601 325.17C10.0601 317.99 15.8801 312.17 23.0601 312.17H106.1C107.31 312.17 108.29 311.19 108.29 309.98V307.69C108.29 306.48 107.31 305.5 106.1 305.5H21.0601Z" fill="#5666F8" stroke="#222222" stroke-width="2" stroke-miterlimit="10"/>
<path d="M91.72 320.72H20.5" stroke="#222222" stroke-width="2" stroke-miterlimit="10" stroke-linecap="round"/>
<path d="M91.72 329.61H20.5" stroke="#222222" stroke-width="2" stroke-miterlimit="10" stroke-linecap="round"/>
</g>
<g clip-path="url(#clip5_49_251)">
<path d="M100.39 277.28C129.6 277.28 153.28 253.6 153.28 224.39C153.28 195.18 129.6 171.5 100.39 171.5C71.1797 171.5 47.5 195.18 47.5 224.39C47.5 253.6 71.1797 277.28 100.39 277.28Z" fill="#F87C56" stroke="#222222" stroke-width="2" stroke-miterlimit="10"/>
<path d="M108.39 204.39L93.4301 245.72" stroke="white" stroke-width="2" stroke-miterlimit="10" stroke-linecap="round"/>
<path d="M87.2 210.76L73.09 224.87L87.17 238.94" stroke="white" stroke-width="2" stroke-miterlimit="10" stroke-linecap="round"/>
<path d="M114.5 210.76L128.61 224.87L114.54 238.94" stroke="white" stroke-width="2" stroke-miterlimit="10" stroke-linecap="round"/>
</g>
<g clip-path="url(#clip6_49_251)">
<path d="M738.78 328H742.78C752.59 328 760.56 335.97 760.56 345.78H721C721 335.97 728.97 328 738.78 328Z" fill="white" stroke="#222222" stroke-width="2" stroke-miterlimit="10" stroke-linecap="round"/>
<path d="M739.96 328V331.85" stroke="#222222" stroke-width="2" stroke-miterlimit="10" stroke-linecap="round"/>
</g>
<g clip-path="url(#clip7_49_251)">
<path d="M782.35 279.15H838.07C840.19 279.15 841.92 280.87 841.92 283V339.6C841.92 343.53 838.73 346.71 834.81 346.71H785.61C781.68 346.71 778.5 343.52 778.5 339.6V282.99C778.5 280.87 780.22 279.14 782.35 279.14V279.15Z" fill="white" stroke="#222222" stroke-width="2" stroke-miterlimit="10"/>
<path d="M860.72 314.09C860.72 303.46 852.39 294.81 841.91 294.23V302.25C846.59 304.07 849.92 308.6 849.92 313.93C849.92 319.26 846.59 323.79 841.91 325.61V333.94C852.39 333.37 860.72 324.71 860.72 314.08V314.09Z" fill="white" stroke="#222222" stroke-width="2" stroke-miterlimit="10"/>
<path d="M825.99 298.7H812.19C811.091 298.7 810.2 299.591 810.2 300.69V320.12C810.2 321.219 811.091 322.11 812.19 322.11H825.99C827.089 322.11 827.98 321.219 827.98 320.12V300.69C827.98 299.591 827.089 298.7 825.99 298.7Z" fill="#F87C56" stroke="#222222" stroke-width="2" stroke-miterlimit="10"/>
<path d="M817.31 298.7V279.15C817.31 276.86 815.45 275 813.16 275H809.9C807.61 275 805.75 276.86 805.75 279.15" stroke="#222222" stroke-width="2" stroke-miterlimit="10" stroke-linecap="round"/>
</g>
<g clip-path="url(#clip8_49_251)">
<path d="M564.22 110.5H730.55C736.49 110.5 741.31 115.32 741.31 121.26V259.43C741.31 267.66 734.63 274.35 726.39 274.35H565.42C557.19 274.35 550.5 267.67 550.5 259.43V124.22C550.5 116.65 556.65 110.5 564.22 110.5Z" fill="white" stroke="#222222" stroke-width="2" stroke-miterlimit="10"/>
<path d="M564.22 111.5H730.55C735.938 111.5 740.31 115.872 740.31 121.26V131.72H551.5V124.22C551.5 117.202 557.202 111.5 564.22 111.5Z" fill="#222222" stroke="#222222" stroke-width="2"/>
<path d="M605.51 158.5H588.1C586.664 158.5 585.5 159.664 585.5 161.1V178.51C585.5 179.946 586.664 181.11 588.1 181.11H605.51C606.946 181.11 608.11 179.946 608.11 178.51V161.1C608.11 159.664 606.946 158.5 605.51 158.5Z" fill="#16172C"/>
<path d="M605.51 189.89H588.1C586.664 189.89 585.5 191.054 585.5 192.49V209.9C585.5 211.336 586.664 212.5 588.1 212.5H605.51C606.946 212.5 608.11 211.336 608.11 209.9V192.49C608.11 191.054 606.946 189.89 605.51 189.89Z" fill="#F87C56"/>
<path d="M605.51 221.28H588.1C586.664 221.28 585.5 222.444 585.5 223.88V241.29C585.5 242.726 586.664 243.89 588.1 243.89H605.51C606.946 243.89 608.11 242.726 608.11 241.29V223.88C608.11 222.444 606.946 221.28 605.51 221.28Z" fill="#5666F8"/>
<path d="M668.61 235.5C687.559 235.5 702.92 220.139 702.92 201.19C702.92 182.241 687.559 166.88 668.61 166.88C649.661 166.88 634.3 182.241 634.3 201.19C634.3 220.139 649.661 235.5 668.61 235.5Z" stroke="#5666F8" stroke-miterlimit="10"/>
<path d="M702.92 230.5V171.89" stroke="#222222" stroke-miterlimit="10"/>
<path d="M668.61 171.89C671.371 171.89 673.61 169.651 673.61 166.89C673.61 164.128 671.371 161.89 668.61 161.89C665.849 161.89 663.61 164.128 663.61 166.89C663.61 169.651 665.849 171.89 668.61 171.89Z" fill="white" stroke="#F87C56" stroke-miterlimit="10"/>
<path d="M634.31 206.19C637.071 206.19 639.31 203.951 639.31 201.19C639.31 198.429 637.071 196.19 634.31 196.19C631.549 196.19 629.31 198.429 629.31 201.19C629.31 203.951 631.549 206.19 634.31 206.19Z" fill="white" stroke="#F87C56" stroke-miterlimit="10"/>
<path d="M668.61 240.5C671.371 240.5 673.61 238.261 673.61 235.5C673.61 232.738 671.371 230.5 668.61 230.5C665.849 230.5 663.61 232.738 663.61 235.5C663.61 238.261 665.849 240.5 668.61 240.5Z" fill="white" stroke="#F87C56" stroke-miterlimit="10"/>
<path d="M702.92 206.19C705.681 206.19 707.92 203.951 707.92 201.19C707.92 198.429 705.681 196.19 702.92 196.19C700.159 196.19 697.92 198.429 697.92 201.19C697.92 203.951 700.159 206.19 702.92 206.19Z" fill="white" stroke="#F87C56" stroke-miterlimit="10"/>
<path d="M702.92 172.75C705.024 172.75 706.73 171.044 706.73 168.94C706.73 166.836 705.024 165.13 702.92 165.13C700.816 165.13 699.11 166.836 699.11 168.94C699.11 171.044 700.816 172.75 702.92 172.75Z" fill="#222222"/>
<path d="M702.92 238.12C705.024 238.12 706.73 236.414 706.73 234.31C706.73 232.206 705.024 230.5 702.92 230.5C700.816 230.5 699.11 232.206 699.11 234.31C699.11 236.414 700.816 238.12 702.92 238.12Z" fill="#222222"/>
<path d="M567.39 124.05C568.738 124.05 569.83 122.957 569.83 121.61C569.83 120.262 568.738 119.17 567.39 119.17C566.042 119.17 564.95 120.262 564.95 121.61C564.95 122.957 566.042 124.05 567.39 124.05Z" fill="white"/>
<path d="M577.25 124.05C578.598 124.05 579.69 122.957 579.69 121.61C579.69 120.262 578.598 119.17 577.25 119.17C575.902 119.17 574.81 120.262 574.81 121.61C574.81 122.957 575.902 124.05 577.25 124.05Z" fill="#F87C56"/>
<path d="M587.11 124.05C588.458 124.05 589.55 122.957 589.55 121.61C589.55 120.262 588.458 119.17 587.11 119.17C585.762 119.17 584.67 120.262 584.67 121.61C584.67 122.957 585.762 124.05 587.11 124.05Z" fill="#5666F8"/>
</g>
<defs>
<clipPath id="clip0_49_251">
<rect width="354.83" height="304.52" fill="white" transform="translate(167 42)"/>
</clipPath>
<clipPath id="clip1_49_251">
<rect width="155" height="177" fill="white" transform="translate(241)"/>
</clipPath>
<clipPath id="clip2_49_251">
<rect width="72.11" height="137" fill="white" transform="translate(134 210)"/>
</clipPath>
<clipPath id="clip3_49_251">
<rect width="291.22" height="185.44" fill="white" transform="translate(407 162)"/>
</clipPath>
<clipPath id="clip4_49_251">
<rect width="108.78" height="42.11" fill="white" transform="translate(0 305)"/>
</clipPath>
<clipPath id="clip5_49_251">
<rect width="106.78" height="106.78" fill="white" transform="translate(47 171)"/>
</clipPath>
<clipPath id="clip6_49_251">
<rect width="41.56" height="19.78" fill="white" transform="translate(720 327)"/>
</clipPath>
<clipPath id="clip7_49_251">
<rect width="83.22" height="73.2" fill="white" transform="translate(778 274)"/>
</clipPath>
<clipPath id="clip8_49_251">
<rect width="191.81" height="164.85" fill="white" transform="translate(550 110)"/>
</clipPath>
</defs>
</svg>
