<svg xmlns="http://www.w3.org/2000/svg">
  <defs>
    <!-- nav icon -->
    <symbol id="nav-dashboard" xmlns="http://www.w3.org/2000/svg" width="100%" height="100%"
      viewBox="0 0 24 24" fill="none">
      <rect opacity="0.01" width="24" height="24" fill="currentColor" />
      <path
        d="M5 3.6H9C9.7732 3.6 10.4 4.2268 10.4 5V9C10.4 9.7732 9.7732 10.4 9 10.4H5C4.2268 10.4 3.6 9.7732 3.6 9V5C3.6 4.2268 4.2268 3.6 5 3.6Z"
        stroke="currentColor" stroke-width="1.2" />
      <path
        d="M15 3.6H19C19.7732 3.6 20.4 4.2268 20.4 5V9C20.4 9.7732 19.7732 10.4 19 10.4H15C14.2268 10.4 13.6 9.7732 13.6 9V5C13.6 4.2268 14.2268 3.6 15 3.6Z"
        stroke="currentColor" stroke-width="1.2" />
      <path
        d="M5 13.6H9C9.7732 13.6 10.4 14.2268 10.4 15V19C10.4 19.7732 9.7732 20.4 9 20.4H5C4.2268 20.4 3.6 19.7732 3.6 19V15C3.6 14.2268 4.2268 13.6 5 13.6Z"
        stroke="currentColor" stroke-width="1.2" />
      <path
        d="M15 13.6H19C19.7732 13.6 20.4 14.2268 20.4 15V19C20.4 19.7732 19.7732 20.4 19 20.4H15C14.2268 20.4 13.6 19.7732 13.6 19V15C13.6 14.2268 14.2268 13.6 15 13.6Z"
        stroke="currentColor" stroke-width="1.2" />
    </symbol>
  </defs>
</svg>